<svg width="45" height="35" viewBox="0 0 45 35" fill="none" xmlns="http://www.w3.org/2000/svg">
<path d="M44.0315 4.16203C42.4477 4.84523 40.7242 5.33693 38.9489 5.52843C40.7921 4.43342 42.1723 2.70349 42.8308 0.663197C41.1012 1.69209 39.2064 2.41356 37.2306 2.79562C36.4047 1.91277 35.4059 1.20945 34.2964 0.729486C33.1869 0.249523 31.9904 0.00320286 30.7815 0.00587323C25.8904 0.00587323 21.9568 3.97052 21.9568 8.83576C21.9568 9.51896 22.0396 10.2022 22.1742 10.8595C14.8505 10.4765 8.31865 6.97765 3.97617 1.62072C3.18493 2.97219 2.77029 4.51101 2.77539 6.07706C2.77539 9.14113 4.3333 11.8429 6.70898 13.4319C5.30896 13.3767 3.94171 12.9919 2.71846 12.3087V12.4174C2.71846 16.7081 5.75146 20.2639 9.79375 21.0817C9.03477 21.2788 8.25399 21.3797 7.46982 21.3819C6.89531 21.3819 6.35185 21.3249 5.80322 21.2473C6.92119 24.7461 10.1768 27.2874 14.0534 27.3702C11.0204 29.7459 7.22139 31.1434 3.09629 31.1434C2.35615 31.1434 1.67295 31.1175 0.963867 31.0347C4.87676 33.5449 9.51943 34.9942 14.5192 34.9942C30.7505 34.9942 39.6321 21.5475 39.6321 9.87609C39.6321 9.49308 39.6321 9.11007 39.6062 8.72706C41.3246 7.46935 42.8308 5.91144 44.0315 4.16203Z" fill="#D9D9D9"/>
</svg>
