<svg width="27" height="26" viewBox="0 0 27 26" fill="none" xmlns="http://www.w3.org/2000/svg">
<path fill-rule="evenodd" clip-rule="evenodd" d="M1.35878 19.5869C1.24606 19.6242 1.12725 19.6636 1 19.7181H8.62956H18.0198H25.6494C23.5323 19.7181 23.4121 18.9875 22.8103 15.3304C22.4779 13.3101 21.9985 10.3966 20.9542 6.21975C19.6654 1.06433 8.62956 -2.58308 5.10823 6.80677C2.97882 19.0506 2.45902 19.2227 1.35878 19.5869Z" fill="#27BE67"/>
<path d="M8.62956 19.7181H1C1.12725 19.6636 1.24606 19.6242 1.35878 19.5869C2.45902 19.2227 2.97882 19.0506 5.10823 6.80677C8.62956 -2.58308 19.6654 1.06433 20.9542 6.21975C21.9985 10.3966 22.4779 13.3101 22.8103 15.3304C23.4121 18.9875 23.5323 19.7181 25.6494 19.7181H18.0198M8.62956 19.7181C8.62956 21.4787 10.0381 25 13.3247 25C16.6113 25 17.6285 21.4787 18.0198 19.7181M8.62956 19.7181H18.0198" stroke="#27BE67" stroke-width="2" stroke-linecap="round" stroke-linejoin="round"/>
</svg>
