<svg width="18" height="18" viewBox="0 0 18 18" fill="none" xmlns="http://www.w3.org/2000/svg">
<path d="M17.8274 11.7524C17.6084 11.5327 17.2522 11.5327 17.0324 11.7524L15.3674 13.4174V5.73744C15.3674 4.18644 14.1052 2.92494 12.5549 2.92494H8.16742C7.85692 2.92494 7.60492 3.17694 7.60492 3.48744C7.60492 3.79794 7.85692 4.04994 8.16742 4.04994H12.5549C13.4849 4.04994 14.2424 4.80744 14.2424 5.73744V13.4174L12.5774 11.7524C12.3577 11.5327 12.0014 11.5327 11.7824 11.7524C11.5634 11.9722 11.5619 12.3284 11.7824 12.5474L14.4074 15.1724C14.5162 15.2827 14.6602 15.3374 14.8049 15.3374C14.9497 15.3374 15.0922 15.2834 15.2024 15.1724L17.8274 12.5474C18.0479 12.3284 18.0479 11.9722 17.8274 11.7524ZM9.83242 14.2124H5.44492C4.51492 14.2124 3.75742 13.4549 3.75742 12.5249V4.84494L5.42242 6.50994C5.53342 6.62019 5.67742 6.67494 5.82142 6.67494C5.96542 6.67494 6.10942 6.62019 6.21892 6.50994C6.43867 6.29019 6.43867 5.93394 6.21892 5.71494L3.59392 3.08994C3.37417 2.86944 3.01792 2.86944 2.79892 3.08994L0.17392 5.71494C-0.0465801 5.93394 -0.0465801 6.29019 0.17392 6.50994C0.39442 6.72969 0.74917 6.72969 0.96892 6.50994L2.63392 4.84494V12.5249C2.63392 14.0759 3.89617 15.3374 5.44642 15.3374H9.83392C10.1444 15.3374 10.3964 15.0854 10.3964 14.7749C10.3964 14.4644 10.1437 14.2124 9.83392 14.2124H9.83242Z" fill="#8899A6"/>
</svg>
